<svg width="22" height="21" viewBox="0 0 22 21" fill="none" xmlns="http://www.w3.org/2000/svg">
<path d="M10.5245 0.963526C10.6741 0.502871 11.3259 0.50287 11.4755 0.963525L13.5819 7.4463C13.6488 7.65232 13.8408 7.7918 14.0574 7.7918H20.8738C21.3582 7.7918 21.5596 8.4116 21.1677 8.6963L15.6531 12.7029C15.4779 12.8302 15.4046 13.0559 15.4715 13.2619L17.5779 19.7447C17.7276 20.2053 17.2003 20.5884 16.8085 20.3037L11.2939 16.2971C11.1186 16.1698 10.8814 16.1698 10.7061 16.2971L5.19153 20.3037C4.79967 20.5884 4.27243 20.2053 4.42211 19.7447L6.52849 13.2619C6.59543 13.0559 6.5221 12.8302 6.34685 12.7029L0.832272 8.6963C0.440415 8.4116 0.641802 7.7918 1.12616 7.7918H7.94256C8.15917 7.7918 8.35115 7.65232 8.41809 7.4463L10.5245 0.963526Z" fill="#F8B602"/>
</svg>
